<?xml version="1.0" encoding="utf-8"?>
<!-- Generator: Adobe Illustrator 24.0.1, SVG Export Plug-In . SVG Version: 6.00 Build 0)  -->
<svg version="1.1" id="레이어_1" xmlns="http://www.w3.org/2000/svg" xmlns:xlink="http://www.w3.org/1999/xlink" x="0px"
	 y="0px" viewBox="0 0 566.9 566.9" style="enable-background:new 0 0 566.9 566.9;" xml:space="preserve">
<style type="text/css">
	.st0{fill:#F6A240;}
	.st1{fill:#1D1D1F;}
</style>
<g>
	<path class="st0" d="M229.9,533.8L31.4,335.3c-29.2-29.2-29.2-76.5,0-105.7L229.9,31.1c29.2-29.2,76.5-29.2,105.7,0l198.5,198.5
		c29.2,29.2,29.2,76.5,0,105.7L335.6,533.8C306.4,563,259.1,563,229.9,533.8z"/>
	<g>
		<path class="st1" d="M248.2,158.9l15.3,186.5c0.8,10,9.2,17.8,19.3,17.8l0,0c10.1,0,18.5-7.7,19.3-17.8l15.3-186.5
			c1.7-20.2-14.3-37.6-34.6-37.6l0,0C262.5,121.4,246.5,138.7,248.2,158.9z"/>
		<path class="st1" d="M311.3,414.9c0,15.8-12.8,28.6-28.6,28.6c-15.8,0-28.6-12.8-28.6-28.6c0-15.8,12.8-28.6,28.6-28.6
			C298.6,386.3,311.3,399.1,311.3,414.9z"/>
	</g>
</g>
</svg>
