<?xml version="1.0" encoding="utf-8"?>
<!-- Generator: Adobe Illustrator 24.0.1, SVG Export Plug-In . SVG Version: 6.00 Build 0)  -->
<svg version="1.1" id="레이어_1" xmlns="http://www.w3.org/2000/svg" xmlns:xlink="http://www.w3.org/1999/xlink" x="0px"
	 y="0px" viewBox="0 0 566.9 566.9" style="enable-background:new 0 0 566.9 566.9;" xml:space="preserve">
<style type="text/css">
	.st0{fill:#FFFFFF;}
</style>
<g>
	<path class="st0" d="M534.8,174.7H31.2c-5.8,0-10.5,4.5-10.5,10v229.5c0,5.5,4.7,10,10.5,10h63.4l11.5-109.8h343.2l11.5,109.8h73.9
		c5.8,0,10.5-4.5,10.5-10V184.6C545.3,179.1,540.6,174.7,534.8,174.7z M468.3,270.4c-17.9,0-32.5-13.8-32.5-30.9
		c0-17.1,14.5-30.9,32.5-30.9c18,0,32.5,13.8,32.5,30.9C500.8,256.6,486.3,270.4,468.3,270.4z"/>
	<polygon class="st0" points="413.1,424.1 405.6,360.7 149.9,360.7 142.4,424.1 134,513.9 421.5,513.9 	"/>
	<rect x="136.1" y="54.9" class="st0" width="283.3" height="89.2"/>
</g>
</svg>
