<?xml version='1.0' encoding='UTF-8'?>
<svg viewBox="-4.2125 -2.0025 32 32" xmlns="http://www.w3.org/2000/svg" xmlns:xlink="http://www.w3.org/1999/xlink">
  <g id="레이어_1" transform="translate(-3.9822, -1.465)">
    <g transform="matrix(0.0544, 0, 0, 0.0544, 0, 0)">
      <g>
        <g>
          <path d="M506.8, 218.4L417.5, 26.9L385.6, 97.1C332.7, 77.2 167.4, 35.6 73.2, 242.8C73.2, 242.8 142.9, 123.1 337.5, 202.9L303.2, 278.3L506.8, 218.4z" fill="#039C23" class="Green" />
        </g>
      </g>
    </g>
  </g>
  <g id="레이어_1" transform="translate(-3.9822, -1.465)">
    <g transform="matrix(0.0544, 0, 0, 0.0544, 0, 0)">
      <g>
        <g>
          <path d="M73.2, 350.5L162.5, 541.9L194.4, 471.7C247.3, 491.6 412.6, 533.2 506.9, 326C506.9, 326 437.2, 445.7 242.6, 365.9L276.9, 290.5L73.2, 350.5z" fill="#039C23" class="Green" />
        </g>
      </g>
    </g>
  </g>
</svg>