<?xml version="1.0" encoding="utf-8"?>
<!-- Generator: Adobe Illustrator 24.0.1, SVG Export Plug-In . SVG Version: 6.00 Build 0)  -->
<svg version="1.1" id="레이어_1" xmlns="http://www.w3.org/2000/svg" xmlns:xlink="http://www.w3.org/1999/xlink" x="0px"
	 y="0px" viewBox="0 0 566.9 566.9" style="enable-background:new 0 0 566.9 566.9;" xml:space="preserve">
<style type="text/css">
	.st0{fill:#0097CE;}
	.st1{fill:#FFFFFF;}
</style>
<g>
	<g>
		<path class="st0" d="M229.9,533.8L31.4,335.3c-29.2-29.2-29.2-76.5,0-105.7L229.9,31.1c29.2-29.2,76.5-29.2,105.7,0l198.5,198.5
			c29.2,29.2,29.2,76.5,0,105.7L335.6,533.8C306.4,563,259.1,563,229.9,533.8z"/>
	</g>
	<g>
		
			<ellipse transform="matrix(0.9871 -0.1602 0.1602 0.9871 -24.6241 47.7582)" class="st1" cx="283.9" cy="176.6" rx="34.8" ry="34.8"/>
		<polygon class="st1" points="307.4,374 307.4,271.9 307.4,256.5 307.4,237.3 235.9,237.3 235.9,271.9 264.1,271.9 264.1,374 
			237.2,374 237.2,408.6 334.3,408.6 334.3,374 		"/>
	</g>
</g>
</svg>
