<?xml version="1.0" encoding="utf-8"?>
<!-- Generator: Adobe Illustrator 24.0.1, SVG Export Plug-In . SVG Version: 6.00 Build 0)  -->
<svg version="1.1" id="레이어_1" xmlns="http://www.w3.org/2000/svg" xmlns:xlink="http://www.w3.org/1999/xlink" x="0px"
	 y="0px" viewBox="0 0 566.9 566.9" style="enable-background:new 0 0 566.9 566.9;" xml:space="preserve">
<style type="text/css">
	.st0{fill:#2B5597;}
	.st1{fill:#85B7E8;}
</style>
<g>
	<g>
		<g>
			<g>
				<path class="st0" d="M240.7,343.8c0,1.1-0.9,1.9-2.1,1.9H220c-1.1,0-2.1-0.8-2.1-1.9l0.2-126.9c0-1.3,0.8-2.1,1.9-2.1
					c15.3,0,30.7,0,46,0c26.2,0,41.9,16.4,42,40c-0.2,23.8-15.8,40.2-42,40.2c-12.8,0-20.7,0-25.3,0V343.8z M264.1,273.5
					c12.1,0,21.3-5.5,21.3-18.5s-9-18.9-21.3-18.9h-23.4v37.3h23.4V273.5z"/>
				<path class="st0" d="M386.7,213.1c40.3,0,66.9,27,66.9,67.1c0,40.3-26.6,67.1-66.9,67.1s-67.3-26.8-67.3-67.1
					C319.3,240.1,346.3,213.1,386.7,213.1z M386.7,324.9c26.6,0,44.3-17.9,44.3-44.7c0.2-26.8-17.7-44.7-44.3-44.7
					c-26.8,0-44.7,17.9-44.7,44.7S359.9,324.9,386.7,324.9z"/>
				<path class="st0" d="M464.5,329.1l9.4-16.4c0.8-1.1,1.7-1.3,2.8-0.4c4.7,4,19,12.8,36.4,12.8c13.2,0,23.2-5.8,23.2-15.6
					c0-7.5-5.8-13.2-27-17.5c-30-5.8-43.9-17.5-44.5-39.2c-0.8-22.8,18.3-39.8,47.1-39.6c22.2,0.2,36.6,9.2,40.2,12.6
					c0.8,0.6,0.9,1.7,0.6,2.6l-7.7,17.3c-0.6,1.1-1.3,1.3-2.6,0.4c-4.5-3.2-15.3-10.4-31.3-10.4c-13.8,0-23.6,6.8-23.6,15.3
					c0,9.1,6.6,13,27.3,18.1c29,6.6,43.4,16.8,44.1,38.8c0.6,23.2-17.3,39.8-47.7,39.6c-25.1-0.2-42.4-11.9-46.4-15.8
					C464.1,331.2,463.8,330.2,464.5,329.1z"/>
			</g>
		</g>
	</g>
	<g>
		<path class="st1" d="M83.9,353.4c-9.6,0-19.4-1.9-28.7-5.9c-18.2-7.7-32.2-22-39.6-40.3s-7.2-38.3,0.5-56.5
			c15.9-37.5,59.3-55,96.8-39.1c15.7,6.7,28.7,18.7,36.6,33.8l-25.7,13.4c-4.9-9.3-12.5-16.4-22.2-20.5c-22.8-9.7-49.1,1-58.8,23.8
			s1,49.1,23.8,58.8c22.8,9.7,49.1-1,58.8-23.8l26.7,11.3C140,336.5,112.7,353.4,83.9,353.4z"/>
		<polygon class="st0" points="167.6,352.6 138.6,352.6 138.6,306.9 92.9,306.9 92.9,277.9 167.6,277.9 		"/>
	</g>
	<g>
		<path class="st0" d="M125.3,297.1c-9.7,22.8-36,33.4-58.8,23.8c-4.5-1.9-8.4-4.4-11.9-7.5c-12.8-9.6-38.3-35.8-23.6-85.1
			c-6.2,6.3-11.3,13.9-14.9,22.5C8.4,269,8.2,289,15.6,307.3s21.5,32.6,39.6,40.3c9.4,4,19.1,5.9,28.7,5.9c28.7,0,56.1-16.9,68.1-45
			L125.3,297.1z"/>
	</g>
</g>
</svg>
