<?xml version="1.0" encoding="utf-8"?>
<!-- Generator: Adobe Illustrator 24.0.1, SVG Export Plug-In . SVG Version: 6.00 Build 0)  -->
<svg version="1.1" id="레이어_1" xmlns="http://www.w3.org/2000/svg" xmlns:xlink="http://www.w3.org/1999/xlink" x="0px"
	 y="0px" viewBox="0 0 566.9 566.9" style="enable-background:new 0 0 566.9 566.9;" xml:space="preserve">
<style type="text/css">
	.st0{fill:#FFFFFF;}
</style>
<g>
	<g>
		<path class="st0" d="M543.8,421.6c-0.1-103.3-0.2-206.6,0.1-309.9c-0.4-10.1,0.3-21.3-5.8-30.1c-8.7-6-19.8-5.3-29.9-5.7
			c-59.6,0.3-119.2,0.2-178.8,0.2V28.5h-35.4C202.7,44.6,111.4,60.3,20,76.2v416.6c90.8,15.9,181.7,31.1,272.4,47.6h37v-53.6
			c61.7-0.1,123.5,0.2,185.1,0c9.9-0.4,24.8-0.7,27.2-13.1C545.4,456.6,543.5,439,543.8,421.6z M195.3,377.6
			c-10.1-24.8-22.4-48.8-29.7-74.8c-8.1,24.2-19.6,47-28.9,70.7c-13-0.2-26.1-0.7-39.1-1.3c15.3-29.9,30.1-60.1,45.8-89.9
			c-13.4-30.7-28.1-60.7-41.9-91.2c13.1-0.8,26.2-1.5,39.3-2.3c8.9,23.3,18.6,46.2,25.9,70.1c7.9-25.3,19.6-49.1,29.6-73.6
			c13.5-1,27-1.8,40.5-2.4c-15.9,32.6-31.9,65.1-48,97.6c16.4,33.3,33.1,66.4,49.5,99.8C223.9,379.5,209.6,378.6,195.3,377.6z
			 M525.8,469H329.4v-35.7H377v-41.7h-47.6v-23.8H377v-41.7h-47.6v-23.8H377v-41.7h-47.6v-23.8H377v-41.7h-47.6v-23.8H377v-41.7
			h-47.6V93.9h196.4V469z"/>
		<rect x="400.8" y="129.7" class="st0" width="83.3" height="41.7"/>
		<rect x="400.8" y="326.1" class="st0" width="83.3" height="41.7"/>
		<rect x="400.8" y="260.6" class="st0" width="83.3" height="41.7"/>
		<rect x="400.8" y="391.6" class="st0" width="83.3" height="41.7"/>
		<rect x="400.8" y="195.1" class="st0" width="83.3" height="41.7"/>
	</g>
</g>
</svg>
