<?xml version="1.0" encoding="utf-8"?>
<!-- Generator: Adobe Illustrator 24.0.1, SVG Export Plug-In . SVG Version: 6.00 Build 0)  -->
<svg version="1.1" id="레이어_1" xmlns="http://www.w3.org/2000/svg" xmlns:xlink="http://www.w3.org/1999/xlink" x="0px"
	 y="0px" viewBox="0 0 566.9 566.9" style="enable-background:new 0 0 566.9 566.9;" xml:space="preserve">
<style type="text/css">
	.st0{fill:#FFFFFF;}
</style>
<path class="st0" d="M550,316.2V248l-72.8-24.5L462,186.9l34.1-68.8L448,69.9L379.1,104l-36.6-15.2L318,16h-68.2l-24.5,72.8
	L188.7,104l-68.8-34.1l-48.2,48.2l34.1,68.8l-15.2,36.6L17.8,248v68.2l72.8,24.5l15.2,36.6l-34.1,68.8l48.2,48.2l68.8-34.1
	l36.6,15.2l24.5,72.8H318l24.5-72.8l36.6-15.2l68.8,34.1l48.2-48.2L462,377.4l15.2-36.6L550,316.2z M283.9,383.6
	c-56,0-101.5-45.4-101.5-101.5c0-56,45.4-101.5,101.5-101.5c56,0,101.5,45.4,101.5,101.5S339.9,383.6,283.9,383.6z"/>
</svg>
