<?xml version="1.0" encoding="utf-8"?>
<!-- Generator: Adobe Illustrator 24.0.1, SVG Export Plug-In . SVG Version: 6.00 Build 0)  -->
<svg version="1.1" id="레이어_1" xmlns="http://www.w3.org/2000/svg" xmlns:xlink="http://www.w3.org/1999/xlink" x="0px"
	 y="0px" viewBox="0 0 566.9 566.9" style="enable-background:new 0 0 566.9 566.9;" xml:space="preserve">
<style type="text/css">
	.st0{fill:#D45A3D;}
	.st1{fill:#FFFFFF;}
</style>
<g>
	<g>
		<path class="st0" d="M229.9,533.8L31.4,335.3c-29.2-29.2-29.2-76.5,0-105.7L229.9,31.1c29.2-29.2,76.5-29.2,105.7,0l198.5,198.5
			c29.2,29.2,29.2,76.5,0,105.7L335.6,533.8C306.4,563,259.1,563,229.9,533.8z"/>
	</g>
	<g>
		<g>
			<path class="st1" d="M309.8,223.4c0-17.1-11.3-28.1-29.1-28.1c-15.1,0-27,7.9-38,19.2L215,189.2c17.8-20.2,42.1-34.2,71.8-34.2
				c41,0,71.2,21.2,71.2,65c0,48.6-59.5,65-54.4,113.2h-43.8C251.7,278.1,309.8,256.3,309.8,223.4z M250.7,391.4
				c0-18.5,13.3-32.8,31.1-32.8c18.1,0,31.5,14.4,31.5,32.8c0,18.5-13.3,32.8-31.5,32.8C264,424.2,250.7,409.8,250.7,391.4z"/>
		</g>
	</g>
</g>
</svg>
