<?xml version='1.0' encoding='UTF-8'?>
<svg viewBox="-2 -2 32 32" xmlns="http://www.w3.org/2000/svg" xmlns:xlink="http://www.w3.org/1999/xlink">
  <g transform="translate(0, 0)">
    <g transform="matrix(0.041, 0, 0, 0.041, 0, 0)">
      <g transform="matrix(1.3333, 0, 0, 1.3333, 0, 0.0007)">
        <path d="M456.8359, 0L55.1679, 0C24.746, 0 -0.0001, 24.75 -0.0001, 55.168L-0.0001, 183.6992C-0.0001, 214.1211 24.746, 238.8672 55.1679, 238.8672L173.8788, 238.8672C171.7968, 244.1797 170.6405, 249.957 170.6405, 256L170.6405, 332.5312C170.1327, 332.5156 169.6171, 332.5078 169.1053, 332.5078C156.535, 332.5078 144.7186, 337.4023 135.828, 346.289C126.9257, 355.1913 122.0233, 367.0273 122.0233, 379.6171C122.0233, 392.2069 126.9256, 404.0429 135.828, 412.9452L202.7577, 479.8749C223.4725, 500.5897 251.0155, 511.9999 280.3085, 511.9999C340.7812, 511.9999 389.9765, 462.8046 389.9765, 402.3319L389.9765, 356.2421C389.9765, 325.8241 365.2304, 301.0741 334.8124, 301.0741L264.9101, 301.0741L264.9062, 256.0038C264.9062, 250.0429 263.7968, 244.2577 261.6953, 238.8671L456.8359, 238.8671C487.2539, 238.8671 512, 214.121 512, 183.6991L512, 55.1679C512, 24.7499 487.2539, -0.0001 456.8359, -0.0001zM229.8906, 243.8867C233.125, 247.1211 234.9062, 251.4219 234.9062, 256L234.9062, 316.0781C234.9101, 324.3593 241.625, 331.0781 249.9062, 331.0781L334.8085, 331.0781C348.6874, 331.0781 359.9765, 342.3672 359.9765, 356.2422L359.9765, 402.336C359.9765, 446.2618 324.2382, 482.0001 280.3085, 482.0001C259.0273, 482.0001 239.0194, 473.7149 223.9687, 458.6642L157.039, 391.7345C153.8046, 388.4962 152.0234, 384.1954 152.0234, 379.6173C152.0234, 375.0431 153.8046, 370.7384 157.039, 367.504C160.2617, 364.2852 164.5468, 362.5079 169.1054, 362.5079C172.2265, 362.5079 175.2773, 363.3477 177.9296, 364.9415C182.5663, 367.7149 188.3358, 367.7853 193.0351, 365.1251C197.7343, 362.461 200.6406, 357.4728 200.6406, 352.0743L200.6406, 256.0001C200.6406, 246.5548 208.3242, 238.8673 217.7734, 238.8673C222.3476, 238.8673 226.6523, 240.6485 229.8906, 243.8868zM482, 183.6992C482, 197.5781 470.7109, 208.8672 456.8359, 208.8672L55.1679, 208.8672C41.289, 208.8672 29.9999, 197.5781 29.9999, 183.6992L29.9999, 55.168C29.9999, 41.2891 41.289, 30 55.1679, 30L456.8359, 30C470.7109, 30 482, 41.2891 482, 55.168zM482, 183.6992" fill="#039C23" class="Green" />
      </g>
    </g>
  </g>
  <g transform="translate(0, 0)">
    <g transform="matrix(0.041, 0, 0, 0.041, 0, 0)">
      <g transform="matrix(1.3333, 0, 0, 1.3333, 0, 0.0007)">
        <path d="M181.3711, 114.0508C189.8906, 110.3555 195.0273, 101.6797 195.0273, 88.5039C195.0273, 65.6875 179.4414, 60.2227 162.7343, 60.2227L131.7226, 60.2227C127.0624, 60.2227 122.5664, 62.4727 122.5664, 66.8125L122.5664, 171.2539C122.5664, 174.625 126.0976, 177.6797 131.7226, 177.6797L165.7851, 177.6797C183.9413, 177.6797 197.9218, 168.6797 197.9218, 143.6172L197.9218, 140.2422C197.9218, 124.1719 191.1757, 117.9063 181.371, 114.0508zM143.293, 78.543L161.1289, 78.543C169.3203, 78.543 174.1406, 83.6836 174.1406, 92.0391C174.1406, 100.2344 169.9648, 105.8555 161.289, 105.8555L143.2929, 105.8555zM177.0313, 141.8477C177.0313, 154.0586 171.2501, 159.3633 161.4493, 159.3633L143.2931, 159.3633L143.2931, 122.2461L161.4493, 122.2461C171.2501, 122.2461 177.0313, 126.7461 177.0313, 139.2773zM177.0313, 141.8477" fill="#039C23" class="Green" />
      </g>
    </g>
  </g>
  <g transform="translate(0, 0)">
    <g transform="matrix(0.041, 0, 0, 0.041, 0, 0)">
      <g transform="matrix(1.3333, 0, 0, 1.3333, 0, 0.0007)">
        <path d="M279.0586, 60.2227C273.7539, 60.2227 268.6133, 62.1524 268.6133, 66.6524L268.6133, 141.8477C268.6133, 154.3789 262.0274, 160.3282 250.9375, 160.3282C239.8516, 160.3282 233.2656, 154.3829 233.2656, 141.8477L233.2656, 66.6524C233.2656, 62.1524 227.9609, 60.2227 222.8203, 60.2227C217.5195, 60.2227 212.3789, 62.1524 212.3789, 66.6524L212.3789, 141.8477C212.3789, 168.6797 229.25, 178.6407 250.9375, 178.6407C272.4687, 178.6407 289.5039, 168.6798 289.5039, 141.8477L289.5039, 66.6524C289.5039, 62.1524 284.1992, 60.2227 279.0586, 60.2227zM279.0586, 60.2227" fill="#039C23" class="Green" />
      </g>
    </g>
  </g>
  <g transform="translate(0, 0)">
    <g transform="matrix(0.041, 0, 0, 0.041, 0, 0)">
      <g transform="matrix(1.3333, 0, 0, 1.3333, 0, 0.0007)">
        <path d="M375.6172, 60.2227C372.2422, 60.2227 370.7969, 61.668 369.3516, 64.4024L344.7657, 110.8399L320.3438, 64.4024C318.8985, 61.5079 317.2891, 60.2227 313.9141, 60.2227C308.293, 60.2227 300.0977, 63.7579 300.0977, 68.9024C300.0977, 69.3829 300.2579, 70.1876 300.5821, 70.9922L333.8399, 128.5117C334.1602, 128.9961 334.3204, 129.7969 334.3204, 130.6015L334.3204, 171.0937C334.3204, 175.4296 339.6251, 177.6796 344.7657, 177.6796C350.0665, 177.6796 355.211, 175.4296 355.211, 171.0937L355.211, 130.6015C355.211, 129.7968 355.5313, 128.996 355.8516, 128.5117L388.9532, 70.9922C389.4337, 70.1875 389.4337, 69.3828 389.4337, 68.9024C389.4337, 63.7579 381.2423, 60.2227 375.6173, 60.2227zM375.6172, 60.2227" fill="#039C23" class="Green" />
      </g>
    </g>
  </g>
</svg>