<?xml version='1.0' encoding='UTF-8'?>
<svg viewBox="-2 -2 32 32" xmlns="http://www.w3.org/2000/svg" xmlns:xlink="http://www.w3.org/1999/xlink">
  <g transform="translate(0, 0)">
    <g transform="matrix(0.041, 0, 0, 0.041, 0, 0)">
      <g transform="matrix(1.3333, 0, 0, 1.3333, 0, 0)">
        <path d="M456.8281, 0L338.3554, 0C312.3476, 0 277.5663, 14.4062 259.1796, 32.7969L16.1093, 275.8633C5.7187, 286.25 -0.0001, 300.1016 -0.0001, 314.8711C-0.0001, 329.6406 5.7226, 343.4922 16.1093, 353.8789L158.1171, 495.8906C168.5038, 506.2773 182.3554, 512 197.1249, 512C211.8905, 512 225.746, 506.2773 236.1366, 495.8906L479.203, 252.8203C497.5936, 234.4336 511.9999, 199.6523 511.9999, 173.6445L511.9999, 55.164C511.996, 24.746 487.246, -0.0001 456.828, -0.0001zM482, 173.6445C482, 191.7343 470.7812, 218.8203 457.9922, 231.6093L214.9219, 474.6757C210.1992, 479.3984 203.8789, 481.9999 197.125, 481.9999C190.3711, 481.9999 184.0547, 479.3983 179.332, 474.6796L37.3242, 332.664C32.6015, 327.9413 30, 321.621 30, 314.871C30, 308.1171 32.5977, 301.7968 37.3203, 297.078L280.3906, 54.0077C293.1797, 41.2186 320.2656, 29.9999 338.3554, 29.9999L456.8281, 29.9999C470.707, 29.9999 481.9961, 41.289 482, 55.164zM482, 173.6445" fill="#245698" class="Dark Blue" />
      </g>
    </g>
  </g>
  <g transform="translate(0, 0)">
    <g transform="matrix(0.041, 0, 0, 0.041, 0, 0)">
      <g transform="matrix(1.3333, 0, 0, 1.3333, 0, 0)">
        <path d="M139.3086, 331.4922C133.8555, 326.043 135.2188, 318.0899 143.3945, 309.9063C152.9414, 300.3633 159.8711, 302.0665 163.3945, 298.5469C167.4843, 294.4571 164.0742, 287.4102 161.4609, 284.8008C153.9609, 277.3008 137.4882, 290.5938 130.7851, 297.2969C117.7187, 310.3633 108.9726, 330.6992 125.8984, 347.6289C152.8242, 374.5547 184.0703, 332.8594 201.1132, 349.9023C207.9296, 356.7187 205.0898, 365.6914 198.2734, 372.5117C186.6836, 384.0976 174.8672, 378.4179 170.2109, 383.0742C166.6875, 386.5976 168.5078, 394.3242 171.6875, 397.5078C178.2773, 404.0976 197.1367, 400.2344 212.0195, 385.3476C227.6992, 369.6718 230.6523, 349.8984 214.4062, 333.6523C184.9804, 304.2304 153.3945, 345.5859 139.3085, 331.4921zM139.3086, 331.4922" fill="#245698" class="Dark Blue" />
      </g>
    </g>
  </g>
  <g transform="translate(0, 0)">
    <g transform="matrix(0.041, 0, 0, 0.041, 0, 0)">
      <g transform="matrix(1.3333, 0, 0, 1.3333, 0, 0)">
        <path d="M298.1367, 282.6445L204.7422, 233.1093C200.3125, 230.7226 194.5156, 233.3359 190.1992, 237.6562C185.9961, 241.8554 183.3828, 247.6523 185.7695, 252.0859L235.3047, 345.4765C235.6445, 346.0429 235.9883, 346.6093 236.2149, 346.8398C239.8516, 350.4726 247.6915, 347.6328 251.6641, 343.6562C254.1641, 341.1601 255.3047, 338.4296 253.711, 335.7031L242.918, 316.2773L268.9375, 290.2578L288.3633, 301.0547C291.0938, 302.6406 293.8164, 301.5078 296.3164, 299.0078C300.293, 295.0312 303.0195, 287.0742 299.4961, 283.5547C299.1602, 283.2149 298.7031, 282.9844 298.1367, 282.6445zM234.3984, 301.6211L209.4023, 256.8516L254.1679, 281.8516zM234.3984, 301.6211" fill="#245698" class="Dark Blue" />
      </g>
    </g>
  </g>
  <g transform="translate(0, 0)">
    <g transform="matrix(0.041, 0, 0, 0.041, 0, 0)">
      <g transform="matrix(1.3333, 0, 0, 1.3333, 0, 0)">
        <path d="M343.0078, 226.4102L315.2851, 254.1329L249.7304, 188.5743C246.5468, 185.3946 241.4374, 187.7813 237.8007, 191.4141C234.0546, 195.1641 231.7773, 200.1641 234.9609, 203.3477L308.8086, 277.1993C311.8789, 280.2657 316.6484, 278.6759 319.9453, 275.379L355.9609, 239.3634C358.914, 236.4103 357.0976, 231.6368 353.914, 228.4572C350.621, 225.1603 345.9648, 223.4533 343.0078, 226.4103zM343.0078, 226.4102" fill="#245698" class="Dark Blue" />
      </g>
    </g>
  </g>
  <g transform="translate(0, 0)">
    <g transform="matrix(0.041, 0, 0, 0.041, 0, 0)">
      <g transform="matrix(1.3333, 0, 0, 1.3333, 0, 0)">
        <path d="M402.4258, 166.9922L370.2735, 199.1445L347.4376, 176.3086L364.7071, 159.0391C367.8868, 155.8594 366.2969, 151.3125 363.6837, 148.6993C360.6173, 145.6329 356.0704, 144.5001 353.1173, 147.4532L335.8478, 164.7188L313.1251, 141.9961L345.2774, 109.8477C348.2305, 106.8907 346.8672, 102.1211 343.3477, 98.5977C340.2774, 95.5313 335.5079, 93.711 332.3243, 96.8907L291.879, 137.3399C288.586, 140.6329 286.9923, 145.4063 290.0626, 148.4727L363.8009, 222.2071C366.8673, 225.2774 371.6368, 223.6876 374.9337, 220.3907L415.379, 179.9454C418.5626, 176.7657 416.7423, 171.9923 413.6759, 168.9259C410.1525, 165.4025 405.379, 164.0392 402.4259, 166.9923zM402.4258, 166.9922" fill="#245698" class="Dark Blue" />
      </g>
    </g>
  </g>
  <g transform="translate(0, 0)">
    <g transform="matrix(0.041, 0, 0, 0.041, 0, 0)">
      <g transform="matrix(1.3333, 0, 0, 1.3333, 0, 0)">
        <path d="M417.4688, 80.3984C413.5196, 80.3984 409.6485, 82 406.8594, 84.789C404.0703, 87.5781 402.4688, 91.4492 402.4688, 95.3984C402.4688, 99.3515 404.0704, 103.2109 406.8594, 106C409.6485, 108.8008 413.5196, 110.3984 417.4688, 110.3984C421.418, 110.3984 425.2774, 108.8007 428.0704, 106C430.8673, 103.2109 432.4688, 99.3398 432.4688, 95.3984C432.4688, 91.4492 430.8672, 87.5781 428.0704, 84.789C425.2774, 81.9999 421.4181, 80.3984 417.4688, 80.3984zM417.4688, 80.3984" fill="#245698" class="Dark Blue" />
      </g>
    </g>
  </g>
</svg>