<?xml version='1.0' encoding='UTF-8'?>
<svg viewBox="-2 -2 32 32" xmlns="http://www.w3.org/2000/svg" xmlns:xlink="http://www.w3.org/1999/xlink">
  <g transform="translate(0.0011, 0)">
    <g transform="matrix(0.8749, 0, 0, 0.8749, 0, 0)">
      <g transform="translate(0, 0)">
        <g transform="matrix(1.1429, 0, 0, 1.1429, 0, 0)">
          <g transform="translate(0, 0)">
            <g transform="matrix(0.9244, 0, 0, 0.9244, 0, 0)">
              <g transform="translate(0.0007, 0.0013)">
                <g transform="matrix(1.0814, 0, 0, 1.0814, 0, 0)">
                  <g id="레이어_1" transform="translate(-0.6965, -0.8426)">
                    <g transform="matrix(0.0522, 0, 0, 0.0522, 0, 0)">
                      <g>
                        <path d="M549.9, 500.9L416.3, 367.3C443.1, 329.9 457.8, 285.3 457.8, 238.3C457.8, 178.9 434.7, 123.1 392.7, 81.2C350.7, 39.3 294.9, 16.1 235.5, 16.1C176.1, 16.1 120.3, 39.2 78.4, 81.2C36.5, 123.2 13.3, 179 13.3, 238.3C13.3, 297.7 36.4, 353.5 78.4, 395.5C121.7, 438.8 178.6, 460.5 235.5, 460.5C280.8, 460.5 326, 446.5 364.4, 419.1L498, 552.7L549.9, 500.9zM130.2, 343.7C102.1, 315.6 86.6, 278.2 86.6, 238.4C86.6, 198.6 102.1, 161.2 130.2, 133.1C158.3, 105 195.7, 89.5 235.5, 89.5C275.3, 89.5 312.7, 105 340.8, 133.1C368.9, 161.2 384.4, 198.6 384.4, 238.4C384.4, 278.2 368.9, 315.6 340.8, 343.7C282.8, 401.8 188.3, 401.7 130.2, 343.7z" fill="#039C23" class="Green" />
                      </g>
                    </g>
                  </g>
                </g>
              </g>
            </g>
          </g>
        </g>
      </g>
    </g>
  </g>
</svg>