<?xml version="1.0" encoding="utf-8"?>
<!-- Generator: Adobe Illustrator 24.0.1, SVG Export Plug-In . SVG Version: 6.00 Build 0)  -->
<svg version="1.1" id="레이어_1" xmlns="http://www.w3.org/2000/svg" xmlns:xlink="http://www.w3.org/1999/xlink" x="0px"
	 y="0px" viewBox="0 0 566.9 566.9" style="enable-background:new 0 0 566.9 566.9;" xml:space="preserve">
<style type="text/css">
	.st0{fill:#FFFFFF;}
</style>
<g>
	<path class="st0" d="M533.2,177.6H30c-5.8,0-10.5,4.5-10.5,10v229.3c0,5.5,4.7,10,10.5,10h63.4l11.5-109.7h342.9l11.5,109.7h73.8
		c5.8,0,10.5-4.5,10.5-10V187.6C543.7,182.1,539,177.6,533.2,177.6z M466.8,273.3c-17.9,0-32.5-13.8-32.5-30.9s14.5-30.9,32.5-30.9
		c17.9,0,32.5,13.8,32.5,30.9S484.7,273.3,466.8,273.3z"/>
	<polygon class="st0" points="411.6,426.9 404.1,363.5 148.6,363.5 141.1,426.9 132.7,516.6 420,516.6 	"/>
	<rect x="134.8" y="58" class="st0" width="283" height="89.1"/>
</g>
</svg>
