<?xml version="1.0" encoding="utf-8"?>
<!-- Generator: Adobe Illustrator 24.0.1, SVG Export Plug-In . SVG Version: 6.00 Build 0)  -->
<svg version="1.1" id="레이어_1" xmlns="http://www.w3.org/2000/svg" xmlns:xlink="http://www.w3.org/1999/xlink" x="0px"
	 y="0px" viewBox="0 0 566.9 566.9" style="enable-background:new 0 0 566.9 566.9;" xml:space="preserve">
<style type="text/css">
	.st0{fill:#2B5597;}
</style>
<g>
	<path class="st0" d="M282.9,557.7c-150.1,0-272.3-122.1-272.3-272.3c0-150.1,122.1-272.3,272.3-272.3
		c150.1,0,272.3,122.1,272.3,272.3C555.2,435.6,433,557.7,282.9,557.7z M282.9,42.2c-134.1,0-243.2,109.1-243.2,243.2
		s109.1,243.2,243.2,243.2s243.2-109.1,243.2-243.2S417,42.2,282.9,42.2z"/>
	<polygon class="st0" points="540.7,300 268.4,300 268.4,27.7 297.4,27.7 297.4,270.9 540.7,270.9 	"/>
</g>
</svg>
