<?xml version="1.0" encoding="utf-8"?>
<!-- Generator: Adobe Illustrator 24.0.1, SVG Export Plug-In . SVG Version: 6.00 Build 0)  -->
<svg version="1.1" id="레이어_1" xmlns="http://www.w3.org/2000/svg" xmlns:xlink="http://www.w3.org/1999/xlink" x="0px"
	 y="0px" viewBox="0 0 566.9 566.9" style="enable-background:new 0 0 566.9 566.9;" xml:space="preserve">
<style type="text/css">
	.st0{fill:#FFFFFF;}
</style>
<g>
	<path class="st0" d="M329.1,543.9H118c-51.6,0-93.5-42-93.5-93.5V239.4c0-51.6,41.9-93.5,93.5-93.5h211.1
		c51.6,0,93.5,41.9,93.5,93.5v211.1C422.6,502,380.6,543.9,329.1,543.9z M118,202.3c-20.4,0-37.1,16.6-37.1,37.1v211.1
		c0,20.4,16.6,37.1,37.1,37.1h211.1c20.4,0,37.1-16.6,37.1-37.1V239.4c0-20.4-16.6-37.1-37.1-37.1H118z"/>
	<path class="st0" d="M450,423h-58.1v-56.5H450c20.4,0,37.1-16.6,37.1-37.1V118.4c0-20.4-16.6-37.1-37.1-37.1H238.9
		c-20.4,0-37.1,16.6-37.1,37.1v65.3h-56.5v-65.3c0-51.6,41.9-93.5,93.5-93.5H450c51.6,0,93.5,41.9,93.5,93.5v211.1
		C543.5,381.1,501.5,423,450,423z"/>
</g>
</svg>
