<?xml version="1.0" encoding="utf-8"?>
<!-- Generator: Adobe Illustrator 24.0.1, SVG Export Plug-In . SVG Version: 6.00 Build 0)  -->
<svg version="1.1" id="레이어_1" xmlns="http://www.w3.org/2000/svg" xmlns:xlink="http://www.w3.org/1999/xlink" x="0px"
	 y="0px" viewBox="0 0 566.9 566.9" style="enable-background:new 0 0 566.9 566.9;" xml:space="preserve">
<style type="text/css">
	.st0{fill:#FFFFFF;}
</style>
<g>
	<polygon class="st0" points="392.6,478.6 326.6,478.6 326.6,180.4 235.4,180.4 235.4,478.6 169.4,478.6 169.4,180.4 78.2,180.4 
		78.2,478.6 78.2,504.8 78.2,537.9 483.8,537.9 483.8,504.8 483.8,478.6 483.8,180.4 392.6,180.4 	"/>
	<path class="st0" d="M330.2,75.2C330.2,75.2,330.2,75.2,330.2,75.2c0-24.4-22-44.2-49.2-44.2c-27.1,0-49.1,19.8-49.1,44.2
		c0,0,0,0,0,0H78.2v55.3h405.6V75.2H330.2z"/>
</g>
</svg>
