<?xml version="1.0" encoding="utf-8"?>
<!-- Generator: Adobe Illustrator 24.0.1, SVG Export Plug-In . SVG Version: 6.00 Build 0)  -->
<svg version="1.1" id="레이어_1" xmlns="http://www.w3.org/2000/svg" xmlns:xlink="http://www.w3.org/1999/xlink" x="0px"
	 y="0px" viewBox="0 0 566.9 566.9" style="enable-background:new 0 0 566.9 566.9;" xml:space="preserve">
<style type="text/css">
	.st0{fill:#FFFFFF;}
</style>
<g>
	<g>
		<rect x="20.4" y="456.7" class="st0" width="530.5" height="66.5"/>
		
			<rect x="-39.9" y="394.4" transform="matrix(6.123234e-17 -1 1 6.123234e-17 -373.9838 483.3604)" class="st0" width="189.2" height="68.6"/>
		
			<rect x="422" y="394.4" transform="matrix(6.123234e-17 -1 1 6.123234e-17 87.9756 945.3198)" class="st0" width="189.2" height="68.6"/>
	</g>
	<path class="st0" d="M437.6,91.4c-2.9-5.3-8.5-8.6-14.6-8.6H141.8c-6.1,0-11.7,3.3-14.6,8.6c-1.4,2.5-2,5.2-2,7.9
		c0,3.1,0.9,6.3,2.7,9L268.5,326c3.1,4.7,8.3,7.6,13.9,7.6c5.6,0,10.9-2.9,13.9-7.6L437,108.4c1.8-2.7,2.7-5.9,2.7-9
		C439.7,96.7,439,93.9,437.6,91.4z"/>
</g>
</svg>
