<?xml version="1.0" encoding="utf-8"?>
<!-- Generator: Adobe Illustrator 24.0.1, SVG Export Plug-In . SVG Version: 6.00 Build 0)  -->
<svg version="1.1" id="레이어_1" xmlns="http://www.w3.org/2000/svg" xmlns:xlink="http://www.w3.org/1999/xlink" x="0px"
	 y="0px" viewBox="0 0 566.9 566.9" style="enable-background:new 0 0 566.9 566.9;" xml:space="preserve">
<style type="text/css">
	.st0{fill:#2B5597;}
</style>
<g>
	<path class="st0" d="M549.9,500.9L416.3,367.3c26.8-37.4,41.5-82,41.5-129c0-59.4-23.1-115.2-65.1-157.1s-97.8-65.1-157.2-65.1
		S120.3,39.2,78.4,81.2S13.3,179,13.3,238.3c0,59.4,23.1,115.2,65.1,157.2c43.3,43.3,100.2,65,157.1,65c45.3,0,90.5-14,128.9-41.4
		L498,552.7L549.9,500.9z M130.2,343.7c-28.1-28.1-43.6-65.5-43.6-105.3s15.5-77.2,43.6-105.3s65.5-43.6,105.3-43.6
		s77.2,15.5,105.3,43.6c28.1,28.1,43.6,65.5,43.6,105.3s-15.5,77.2-43.6,105.3C282.8,401.8,188.3,401.7,130.2,343.7z"/>
</g>
</svg>
