<?xml version="1.0" encoding="utf-8"?>
<!-- Generator: Adobe Illustrator 24.0.1, SVG Export Plug-In . SVG Version: 6.00 Build 0)  -->
<svg version="1.1" id="레이어_1" xmlns="http://www.w3.org/2000/svg" xmlns:xlink="http://www.w3.org/1999/xlink" x="0px"
	 y="0px" viewBox="0 0 566.9 566.9" style="enable-background:new 0 0 566.9 566.9;" xml:space="preserve">
<style type="text/css">
	.st0{fill:#FFFFFF;}
</style>
<g>
	<path class="st0" d="M284,552.9c-148,0-268.5-120.5-268.5-268.5S136,15.9,284,15.9c148,0,268.5,120.5,268.5,268.5
		S432,552.9,284,552.9z M284,56C158,56,55.5,158.5,55.5,284.4S158,512.9,284,512.9c126,0,228.5-102.5,228.5-228.5S410,56,284,56z"/>
	<g>
		<g>
			<path class="st0" d="M171.7,155.6h69.2l70.3,119.5l27.7,55.4h1.9c-3.8-26.5-9.1-62.4-9.1-92.3v-82.6h64.6v249.7h-69.2
				l-69.9-120.5l-27.7-54.7h-1.9c3,27.9,8.7,62.1,8.7,92.3v82.9h-64.6V155.6z"/>
		</g>
	</g>
</g>
</svg>
